<svg width="18" height="18" viewBox="0 0 18 18" fill="none" xmlns="http://www.w3.org/2000/svg">
<path d="M12.207 10.5895L9.69732 8.70721V4.873C9.69732 4.48747 9.3857 4.17585 9.00018 4.17585C8.61465 4.17585 8.30303 4.48747 8.30303 4.873V9.05582C8.30303 9.2754 8.40621 9.48247 8.58189 9.61354L11.3704 11.7049C11.4959 11.7991 11.6423 11.8444 11.788 11.8444C12.0006 11.8444 12.2098 11.7489 12.3464 11.5648C12.5779 11.2573 12.5152 10.8202 12.207 10.5895Z" fill="#757575"/>
<path d="M9 0C4.0371 0 0 4.0371 0 9C0 13.9629 4.0371 18 9 18C13.9629 18 18 13.9629 18 9C18 4.0371 13.9629 0 9 0ZM9 16.6057C4.80674 16.6057 1.39426 13.1933 1.39426 9C1.39426 4.80674 4.80674 1.39426 9 1.39426C13.194 1.39426 16.6057 4.80674 16.6057 9C16.6057 13.1933 13.1933 16.6057 9 16.6057Z" fill="#757575"/>
</svg>
