<svg xmlns:xlink="http://www.w3.org/1999/xlink" viewBox="0 0 15 25" class="icon icon-podcast" xmlns="http://www.w3.org/2000/svg" width="15"  height="25" >
    <title>Podcast</title>
    <path d="M8.005 20.469v3.489h3.283a.523.523 0 0 1 0 1.042H3.712a.523.523 0 0 1 0-1.042h3.282v-3.49C2.954 20.183 0 16.929 0 12.76c0-.78 1.06-.78 1.06 0 0 3.646 2.88 6.64 6.44 6.64 3.56 0 6.439-2.994 6.439-6.64a.533.533 0 0 1 1.061 0c0 4.167-2.954 7.422-6.995 7.709m4.292-15.495v7.76c0 2.76-2.12 4.975-4.798 4.975-2.676 0-4.797-2.24-4.797-4.975v-7.76C2.702 2.239 4.823 0 7.499 0c2.678 0 4.798 2.239 4.798 4.974m-1.01 7.76v-1.276H9.016c-.505 0-.505-.781 0-.781h2.273V9.375H9.015c-.505 0-.505-.781 0-.781h2.273V7.29H9.015c-.505 0-.505-.78 0-.78h2.273V4.974c0-2.136-1.718-3.88-3.789-3.88-2.07 0-3.787 1.744-3.787 3.88V6.51h2.273c.505 0 .505.78 0 .78H3.712v1.303h2.273c.505 0 .505.781 0 .781H3.712v1.302h2.273c.505 0 .505.781 0 .781H3.712v1.276c0 2.135 1.717 3.88 3.787 3.88 2.071 0 3.789-1.745 3.789-3.88" class="icon-fill" fill="#FFFFFF"></path>
</svg>