<?xml version="1.0" encoding="utf-8"?><svg xmlns="http://www.w3.org/2000/svg" xmlns:xlink="http://www.w3.org/1999/xlink"><symbol viewBox="0 0 512 512" id="Filter" xmlns="http://www.w3.org/2000/svg"><path d="M90.5 0h-30v362h-30v90h30v60h30v-60h30v-90h-30zm0 422h-30v-30h30zm391-60h-30V0h-30v362h-30v90h30v60h30v-60h30zm-30 60h-30v-30h30zM331.5 0h-30v222h-30v90h30v200h30V312h30v-90h-30zm0 282h-30v-30h30zM210.5 0h-30v53.652h-30v90h30V512h30V143.652h30v-90h-30zm0 113.652h-30v-30h30z"/></symbol><symbol viewBox="0 0 512 512" id="Link" xmlns="http://www.w3.org/2000/svg"><path d="M488.727 0H302.545c-12.853 0-23.273 10.42-23.273 23.273s10.42 23.273 23.273 23.273h129.997L192.999 286.09c-9.087 9.087-9.087 23.823 0 32.912a23.2 23.2 0 0016.455 6.816 23.195 23.195 0 0016.455-6.817L465.455 79.458v129.997c0 12.853 10.42 23.273 23.273 23.273s23.273-10.42 23.273-23.273V23.273C512 10.42 501.58 0 488.727 0z"/><path d="M395.636 232.727c-12.853 0-23.273 10.42-23.273 23.273v209.455H46.545V139.636H256c12.853 0 23.273-10.42 23.273-23.273S268.853 93.091 256 93.091H23.273C10.42 93.091 0 103.511 0 116.364v372.364C0 501.58 10.42 512 23.273 512h372.364c12.853 0 23.273-10.42 23.273-23.273V256c-.001-12.853-10.421-23.273-23.274-23.273z"/></symbol><symbol class="cicon cicon-podcast" viewBox="0 0 15 25" id="Podcast" xmlns="http://www.w3.org/2000/svg"><path d="M8.005 20.469v3.489h3.283a.523.523 0 010 1.042H3.712a.523.523 0 010-1.042h3.282v-3.49C2.954 20.183 0 16.929 0 12.76c0-.78 1.06-.78 1.06 0 0 3.646 2.88 6.64 6.44 6.64 3.56 0 6.439-2.994 6.439-6.64a.533.533 0 011.061 0c0 4.167-2.954 7.422-6.995 7.709m4.292-15.495v7.76c0 2.76-2.12 4.975-4.798 4.975-2.676 0-4.797-2.24-4.797-4.975v-7.76C2.702 2.239 4.823 0 7.499 0c2.678 0 4.798 2.239 4.798 4.974m-1.01 7.76v-1.276H9.016c-.505 0-.505-.781 0-.781h2.273V9.375H9.015c-.505 0-.505-.781 0-.781h2.273V7.29H9.015c-.505 0-.505-.78 0-.78h2.273V4.974c0-2.136-1.718-3.88-3.789-3.88-2.07 0-3.787 1.744-3.787 3.88V6.51h2.273c.505 0 .505.78 0 .78H3.712v1.303h2.273c.505 0 .505.781 0 .781H3.712v1.302h2.273c.505 0 .505.781 0 .781H3.712v1.276c0 2.135 1.717 3.88 3.787 3.88 2.071 0 3.789-1.745 3.789-3.88" class="cicon-fill"/></symbol><symbol viewBox="0 0 32 32" id="Twitter" xmlns="http://www.w3.org/2000/svg"><path d="M32 6c-1.2.6-2.4.8-3.8 1 1.4-.8 2.4-2 2.8-3.6-1.2.8-2.6 1.2-4.2 1.6-1.2-1.2-3-2-4.8-2-3.4 0-6.4 3-6.4 6.6 0 .6 0 1 .2 1.4-5.4-.2-10.4-2.8-13.6-6.8-.6 1-.8 2-.8 3.4 0 2.2 1.2 4.2 3 5.4-1 0-2-.4-3-.8 0 3.2 2.2 5.8 5.2 6.4-.6.2-1.2.2-1.8.2-.4 0-.8 0-1.2-.2.8 2.6 3.2 4.6 6.2 4.6C7.6 25 4.8 26 1.6 26H0c3 1.8 6.4 3 10 3 12 0 18.6-10 18.6-18.6v-.8C30 8.6 31.2 7.4 32 6z"/></symbol><symbol viewBox="0 0 512 512" id="User" xmlns="http://www.w3.org/2000/svg"><path d="M437.02 74.98C388.668 26.63 324.379 0 256 0 187.617 0 123.332 26.629 74.98 74.98 26.63 123.332 0 187.617 0 256c0 68.379 26.629 132.668 74.98 181.02C123.332 485.37 187.617 512 256 512c68.379 0 132.668-26.629 181.02-74.98C485.37 388.668 512 324.379 512 256c0-68.383-26.629-132.668-74.98-181.02zM128.34 442.387c10.707-61.649 64.129-107.121 127.66-107.121 63.535 0 116.953 45.472 127.66 107.12C347.312 467.36 303.336 482 256 482s-91.313-14.64-127.66-39.613zm46.262-218.52c0-44.887 36.515-81.398 81.398-81.398s81.398 36.515 81.398 81.398c0 44.883-36.515 81.399-81.398 81.399s-81.398-36.516-81.398-81.399zm235.043 197.711c-8.075-28.7-24.11-54.738-46.586-75.078a159.444 159.444 0 00-46.36-29.27c30.5-19.894 50.703-54.312 50.703-93.363 0-61.426-49.976-111.398-111.402-111.398S144.602 162.44 144.602 223.867c0 39.051 20.203 73.469 50.699 93.363a159.483 159.483 0 00-46.36 29.266c-22.472 20.34-38.511 46.379-46.586 75.078C57.883 380.274 30 321.336 30 256 30 131.383 131.383 30 256 30s226 101.383 226 226c0 65.34-27.883 124.277-72.355 165.578zm0 0"/></symbol><symbol viewBox="0 0 18 18" id="clock" xmlns="http://www.w3.org/2000/svg"><path d="M12.207 10.59l-2.51-1.883V4.873a.697.697 0 10-1.394 0v4.183c0 .22.103.426.279.558l2.788 2.09a.691.691 0 00.976-.14.696.696 0 00-.139-.975z"/><path d="M9 0C4.037 0 0 4.037 0 9s4.037 9 9 9 9-4.037 9-9-4.037-9-9-9zm0 16.606c-4.193 0-7.606-3.413-7.606-7.606S4.807 1.394 9 1.394c4.194 0 7.606 3.413 7.606 7.606S13.193 16.606 9 16.606z"/></symbol><symbol viewBox="0 0 25 26" id="close2" xmlns="http://www.w3.org/2000/svg"><path d="M.413 2.145a1.225 1.225 0 01-.404-.88A1.252 1.252 0 01.36.36 1.198 1.198 0 011.245 0a1.178 1.178 0 01.862.412L12.27 10.82 22.452.412a1.194 1.194 0 01.852-.376 1.17 1.17 0 01.858.361 1.223 1.223 0 01.345.881 1.242 1.242 0 01-.377.867l-10.166 10.39 10.168 10.413a1.234 1.234 0 01-.006 1.71 1.18 1.18 0 01-.832.36 1.178 1.178 0 01-.84-.34L12.27 14.275 2.105 24.685a1.203 1.203 0 01-.863.42 1.177 1.177 0 01-.89-.358 1.228 1.228 0 01-.351-.91 1.25 1.25 0 01.411-.883l10.164-10.419L.413 2.145z"/></symbol><symbol viewBox="0 0 471.7 471.7" id="heart" xmlns="http://www.w3.org/2000/svg"><path d="M433.601 67.001c-24.7-24.7-57.4-38.2-92.3-38.2s-67.7 13.6-92.4 38.3l-12.9 12.9-13.1-13.1c-24.7-24.7-57.6-38.4-92.5-38.4-34.8 0-67.6 13.6-92.2 38.2-24.7 24.7-38.3 57.5-38.2 92.4 0 34.9 13.7 67.6 38.4 92.3l187.8 187.8c2.6 2.6 6.1 4 9.5 4 3.4 0 6.9-1.3 9.5-3.9l188.2-187.5c24.7-24.7 38.3-57.5 38.3-92.4.1-34.9-13.4-67.7-38.1-92.4zm-19.2 165.7l-178.7 178-178.3-178.3c-19.6-19.6-30.4-45.6-30.4-73.3s10.7-53.7 30.3-73.2c19.5-19.5 45.5-30.3 73.1-30.3 27.7 0 53.8 10.8 73.4 30.4l22.6 22.6c5.3 5.3 13.8 5.3 19.1 0l22.4-22.4c19.6-19.6 45.7-30.4 73.3-30.4 27.6 0 53.6 10.8 73.2 30.3 19.6 19.6 30.3 45.6 30.3 73.3.1 27.7-10.7 53.7-30.3 73.3z"/></symbol><symbol viewBox="0 0 512 512" id="image" xmlns="http://www.w3.org/2000/svg"><path d="M446.575 0H65.425C29.349 0 0 29.35 0 65.426v381.149C0 482.65 29.349 512 65.425 512h381.15C482.651 512 512 482.65 512 446.574V65.426C512 29.35 482.651 0 446.575 0zm35.267 446.575c0 19.447-15.821 35.267-35.267 35.267H65.425c-19.447 0-35.268-15.821-35.268-35.267v-55.007l99.255-84.451a9.745 9.745 0 0112.562-.075l62.174 51.628c5.995 4.977 14.795 4.569 20.304-.946L372.181 209.77c2.67-2.675 5.783-2.935 7.408-2.852 1.62.083 4.695.661 7.078 3.596l95.176 117.19v118.871zm0-166.71l-71.766-88.366a39.98 39.98 0 00-28.942-14.701c-11.268-.57-22.317 3.672-30.294 11.662L212.832 326.681l-51.59-42.839a39.85 39.85 0 00-51.373.308l-79.712 67.822V65.426c0-19.447 15.821-35.268 35.268-35.268h381.15c19.447 0 35.267 15.821 35.267 35.268v214.439z"/><path d="M161.174 62.995c-40.095 0-72.713 32.62-72.713 72.713 0 40.094 32.619 72.713 72.713 72.713s72.713-32.619 72.713-72.713-32.618-72.713-72.713-72.713zm0 115.269c-23.466 0-42.556-19.091-42.556-42.556 0-23.466 19.09-42.556 42.556-42.556 23.466 0 42.556 19.091 42.556 42.556s-19.09 42.556-42.556 42.556z"/></symbol><symbol class="jmain-header__search-icon jicon-search" viewBox="0 0 24 24" id="search" xmlns="http://www.w3.org/2000/svg"><g class="jicon-fill" fill-rule="evenodd"><path d="M10 18a8 8 0 100-16 8 8 0 000 16zm0-2a6 6 0 110-12 6 6 0 010 12z"/><path d="M14.293 15.707l7 7 1.414-1.414-7-7z"/></g></symbol><symbol class="kmain-header__initiatives-grid-icon kicon-grid" viewBox="0 0 20 20" id="ung-dung" xmlns="http://www.w3.org/2000/svg"><rect x="1" y="1" width="4" height="4" rx="2" class="kicon-fill"/><rect x="1" y="8" width="4" height="4" rx="2" class="kicon-fill"/><rect x="1" y="15" width="4" height="4" rx="2" class="kicon-fill"/><rect x="8" y="1" width="4" height="4" rx="2" class="kicon-fill"/><rect x="8" y="8" width="4" height="4" rx="2" class="kicon-fill"/><rect x="8" y="15" width="4" height="4" rx="2" class="kicon-fill"/><rect x="15" y="1" width="4" height="4" rx="2" class="kicon-fill"/><rect x="15" y="8" width="4" height="4" rx="2" class="kicon-fill"/><rect x="15" y="15" width="4" height="4" rx="2" class="kicon-fill"/></symbol><symbol viewBox="0 0 512 512" id="video" xmlns="http://www.w3.org/2000/svg"><path d="M338.95 243.28l-120-75A15.002 15.002 0 00195.999 181v150a15 15 0 0022.95 12.72l120-75a15 15 0 00.001-25.44zM226 303.936v-95.873L302.698 256z"/><path d="M437 61H75C33.645 61 0 94.645 0 136v240c0 41.355 33.645 75 75 75h362c41.355 0 75-33.645 75-75V136c0-41.355-33.645-75-75-75zm45 315c0 24.813-20.187 45-45 45H75c-24.813 0-45-20.187-45-45V136c0-24.813 20.187-45 45-45h362c24.813 0 45 20.187 45 45z"/></symbol></svg>