<svg xmlns:xlink="http://www.w3.org/1999/xlink" viewBox="0 0 309.2 103.1" class="main-header__branding-icon icon-logo-centennial" xmlns="http://www.w3.org/2000/svg" width="309.2"  height="103.1" >
  <path fill="#412C26" d="M204.3 33.4c-2.4 2.3-6.8 3.1-10.1 3.1h-1.7v-9.6h1.2c5.6 0 11-3 12.6-9.4h9.1v68.2h-11V33.4zm19 32.3V37.5c0-14.2 7.3-21.5 20-21.5 12.5 0 20 7.3 20 21.5v28.1c0 14.2-7.4 21.5-20 21.5-12.7 0-20-7.2-20-21.4zm28.8.8V36.7c0-8.3-3.1-12.5-8.8-12.5-5.8 0-8.8 4.1-8.8 12.4v29.8c0 8.3 3 12.5 8.8 12.5 5.7 0 8.8-4.1 8.8-12.4zm17.2-.8V37.5c0-14.2 7.3-21.5 20-21.5 12.5 0 20 7.3 20 21.5v28.1c0 14.2-7.4 21.5-20 21.5-12.7 0-20-7.2-20-21.4zm28.8.8V36.7c0-8.3-3.1-12.5-8.8-12.5-5.8 0-8.8 4.1-8.8 12.4v29.8c0 8.3 3 12.5 8.8 12.5 5.7 0 8.8-4.1 8.8-12.4zM124.2 32.1c-.6 1.1-1.3 1.7-2.2 1.7-.8 0-1.2-.6-1.1-1.7.1-2.1 1.4-5.6 3.3-5.6.7 0 1.2.5 1.1 1.6 0 1.1-.4 2.8-1.1 4m-.1-6.2c-3.1 0-5.3 2.6-5.4 5.5 0 1.7.9 3.1 3.1 3.1 3.6 0 5.4-3.1 5.5-5.5.1-1.8-1-3.1-3.2-3.1m20.3 4.4c0-.7-.4-1.2-.9-1.2s-.8.3-.8.8c0 .6.5.7.5 1.4 0 .3-.1.6-.4.9-.4.3-.9.6-2.4.6h-3.6c-.4 0-.5-.2-.4-.7.5-1.6 1.3-3.4 1.4-4.2.2-1-.2-2-1.5-2-2 0-3.4 1.8-5.1 5.1h-.1s1.3-3 1.3-4c0-.7-.4-1.1-1.2-1.1-1.2 0-2.4 1.2-2.9 1.9l.4.3c.2-.3.6-.6.9-.9.5-.4.9-.3.8.5-.2 1-1.5 4.6-2.3 6.4h2.1c2.2-4.4 3.8-7.2 5-7.2.4 0 .6.2.6.6 0 .8-1.1 3.4-1.6 5-.3.9-.2 1.5.6 1.5h4.1c1.7 0 3-.8 3.6-1.2 1.2-.5 1.9-1.6 1.9-2.5M12.5 45.8v-2.5H2.4v16.8h2.8v-7.3h6.6v-2.5H5.2v-4.5h7.3zm82.8-.2c-1.7-1.7-3.8-2.7-6.7-2.7-4.9 0-8.9 3.6-8.9 8.9 0 5.3 3.6 8.7 8.7 8.7 4.7 0 8.2-3 8.3-7.8v-.5h-8.2v2.4h5.1c-.5 2.3-2.7 3.4-5 3.4-3.5 0-5.8-2.4-5.8-6.2 0-3.6 2.4-6.3 5.8-6.3 2.4 0 4 1.1 4.9 2.1l1.8-2zm-90.1 31v-5.2h2.3c3 0 3.4 1.4 3.4 2.4s-.4 2.8-3.4 2.8H5.2zm4.1 2.2h.1c2.5-.3 4.3-2.2 4.3-4.9 0-2.9-2.2-4.9-5.6-4.9H2.4v16.9h2.8v-7h.7l5.7 7h3.6l-5.9-7.1zm13.8-.4h6.4V76h-6.4v-4.5h7.2V69H20.1v16.9h10.7v-2.5H23v-5zm16.1-9.5h-2.9v16.9h10.3v-2.4h-7.4V68.9zm26.1 2.5h5.2v14.4h2.8V71.4h5.2v-2.5H65.3v2.5zM83 85.8h2.9V68.9H83v16.9zm41-6.1c-.5-.5-11.3-11.4-11.3-11.4v17.5h2.8V75.2l11.3 11.3V68.9H124v10.8zm13.8-3.7c-2.1-1-3-1.8-3-3 0-1.8 1.9-2.1 2.4-2.1 1.2 0 2.3.4 3.3 1.3l1.4-2c-1.6-1.2-3-1.6-4.7-1.6-3.1 0-5.2 1.9-5.2 4.6 0 2.6 1.7 3.9 4.5 5.3 2 1 3 1.9 3 3.1 0 1.3-1.2 2.1-2.7 2.1-1.6 0-2.9-.5-4.1-1.7l-1.6 2c1.8 1.7 3.8 2.2 5.5 2.2 3.8 0 5.7-2.2 5.7-4.8 0-2.8-2-4.1-4.5-5.4M14 29.8c-1.4 1.6-3.1 2.3-5 2.3-3.4 0-6-2.3-6-6.3 0-3.6 2.4-6.1 5.6-6.1 1.8 0 3.3.6 4.7 2l1.9-1.9c-1.7-1.8-3.8-2.6-6.6-2.6C3.8 17.2 0 21 0 26c0 5.2 3.6 8.7 8.6 8.7 3 0 5.3-1 7-2.9l-1.6-2zm76.9.1c-1.4 1.6-3 2.3-5.1 2.3-3.6 0-6-2.3-6-6.3 0-3.6 2.4-6.1 5.7-6.1 1.8 0 3.3.6 4.7 2l1.9-1.9c-1.6-1.8-3.8-2.6-6.6-2.6-5 0-8.7 3.7-8.7 8.7 0 5.2 3.5 8.7 8.6 8.7 3.1 0 5.4-1 7.1-2.9l-1.6-1.9zM46 34.6c4 0 6.3-2.2 6.9-5.1.1-.6.2-1.4.2-2.1v-9.9h-2.8v9.8c0 3.2-1.6 4.7-4.3 4.7-2.8 0-4.5-1.6-4.5-4.7v-9.8h-2.8v9.9c0 .7.1 1.6.2 2.1.7 2.9 3 5.1 7.1 5.1m15.2-11.1C61.7 24 72.6 35 72.6 35V17.5h-2.8v10.9c-.5-.5-11.4-11.5-11.4-11.5v17.5h2.7V23.5zm37.8-6h-2.9v16.9H99V17.5zm16.2 14.4h-7.4V17.5h-2.9v16.9h10.4v-2.5zM26.3 19.6c-3.2 0-5.9 2.6-5.9 6.3 0 3.8 2.5 6.4 5.9 6.4s5.9-2.6 5.9-6.4c0-3.7-2.6-6.3-5.9-6.3M17.5 26c0-5.1 3.8-8.8 8.8-8.8 5 0 8.8 3.8 8.8 8.8 0 5.1-3.6 8.8-8.8 8.8-5.2 0-8.8-3.8-8.8-8.8m6.9 19.3c-3.2 0-5.9 2.6-5.9 6.4 0 3.8 2.5 6.4 5.9 6.4 3.4 0 5.9-2.6 5.9-6.4 0-3.8-2.7-6.4-5.9-6.4m-8.9 6.4c0-5.1 3.8-8.9 8.8-8.9 5 0 8.8 3.8 8.8 8.9 0 5.1-3.6 8.8-8.8 8.8-5.1 0-8.8-3.7-8.8-8.8m42.7.9h6.4v-2.4h-6.4v-4.5h7.2v-2.4H55.3v16.9H66v-2.5h-7.8v-5.1zm16.4-9.4h-2.9v16.9h2.9V43.2zm-33.7 7.7v-5.2h2.3c3 0 3.4 1.4 3.4 2.4s-.4 2.8-3.4 2.8h-2.3zm4 2.2h.1c2.4-.3 4.3-2.2 4.3-4.9 0-2.9-2.2-4.9-5.6-4.9H38v16.9h2.8v-7h.7l5.7 7h3.6l-5.9-7.1zM59 79.4l-2.2-5.3-2.2 5.3H59zm1 2.5h-6.5l-1.6 3.9h-3l7.9-18 7.9 18h-3.1L60 81.9zm39.3-10.8c-3.2 0-5.9 2.6-5.9 6.4 0 3.8 2.5 6.4 5.9 6.4 3.4 0 5.9-2.6 5.9-6.4 0-3.8-2.7-6.4-5.9-6.4m-8.8 6.3c0-5.1 3.8-8.8 8.8-8.8 5 0 8.8 3.8 8.8 8.8 0 5.1-3.6 8.8-8.8 8.8-5.2.1-8.9-3.7-8.8-8.8m13.4-28.1c.5.5 11.4 11.5 11.4 11.5V43.2h-2.8v10.9c-.5-.5-11.4-11.5-11.4-11.5v17.5h2.7V49.3zm65-49.3h-1v103.1h1V0z" class="icon-fill"></path>
</svg>